<svg id="visual" viewBox="0 0 900 600" width="900" height="600" xmlns="http://www.w3.org/2000/svg" xmlns:xlink="http://www.w3.org/1999/xlink" version="1.1"><path d="M0 211L75 201C150 191 300 171 450 172C600 173 750 195 825 206L900 217L900 0L825 0C750 0 600 0 450 0C300 0 150 0 75 0L0 0Z" fill="#eafbfa"></path><path d="M0 331L75 324C150 317 300 303 450 300C600 297 750 305 825 309L900 313L900 215L825 204C750 193 600 171 450 170C300 169 150 189 75 199L0 209Z" fill="#cff6f3"></path><path d="M0 493L75 495C150 497 300 501 450 500C600 499 750 493 825 490L900 487L900 311L825 307C750 303 600 295 450 298C300 301 150 315 75 322L0 329Z" fill="#cff6f3"></path><path d="M0 601L75 601C150 601 300 601 450 601C600 601 750 601 825 601L900 601L900 485L825 488C750 491 600 497 450 498C300 499 150 495 75 493L0 491Z" fill="#eafbfa"></path></svg>